<?xml version="1.0" encoding="utf-8"?>
<!-- Generator: Adobe Illustrator 16.0.4, SVG Export Plug-In . SVG Version: 6.00 Build 0)  -->
<!DOCTYPE svg PUBLIC "-//W3C//DTD SVG 1.1//EN" "http://www.w3.org/Graphics/SVG/1.1/DTD/svg11.dtd">
<svg version="1.1" id="Layer_1" xmlns="http://www.w3.org/2000/svg" xmlns:xlink="http://www.w3.org/1999/xlink" x="0px" y="0px"
	 width="24px" height="24px" viewBox="0 0 24 24" enable-background="new 0 0 24 24" xml:space="preserve">
<g>
	<path d="M12.339,18.607c0-0.182,0.146-0.327,0.328-0.327h1.124c0.472,0.316,1.005,0.536,1.572,0.64
		c-0.024,0.005-0.046,0.013-0.07,0.013h-2.626C12.485,18.934,12.339,18.787,12.339,18.607z M11.542,15.992h0.581
		c-0.062-0.215-0.106-0.433-0.133-0.654h-0.448c-0.181,0-0.327,0.146-0.327,0.327S11.361,15.992,11.542,15.992z M9.135,7.736
		c-0.4-0.27-0.677-0.803-0.677-1.283c0-0.677,0.549-1.227,1.227-1.227s1.226,0.55,1.226,1.227c0,0.48-0.276,1.013-0.678,1.283
		c0.962,0.244,1.672,1.079,1.672,1.697c0,0.73-4.441,0.73-4.441,0C7.464,8.814,8.176,7.98,9.135,7.736z M9.061,9.359L9.684,9.98
		l0.623-0.622L9.783,8.092h0.005L9.992,7.86c-0.099,0.035-0.2,0.056-0.308,0.056c-0.107,0-0.208-0.021-0.308-0.058L9.58,8.092h0.005
		L9.061,9.359z M17.271,20.195L17.271,20.195l-0.015-0.028c-0.008,0-0.015,0.002-0.022,0.002H5.849
		c-0.589,0-1.067-0.479-1.067-1.067V4.87c0-0.588,0.479-1.067,1.067-1.067h11.384c0.588,0,1.066,0.479,1.066,1.067v6.514
		c0.256,0.162,0.497,0.344,0.713,0.559V4.87c0-0.981-0.799-1.778-1.779-1.778H5.849c-0.981,0-1.78,0.797-1.78,1.778v14.231
		c0,0.98,0.798,1.778,1.78,1.778h11.384c0.139,0,0.273-0.02,0.404-0.051L17.271,20.195z M7.79,14.503h4.192
		c0.021-0.219,0.056-0.438,0.112-0.654H7.791c-0.181,0-0.326,0.146-0.326,0.327C7.464,14.356,7.609,14.503,7.79,14.503z
		 M7.79,11.523h5.874c0.116-0.084,0.238-0.164,0.364-0.237c0.32-0.185,0.664-0.324,1.019-0.417H7.79
		c-0.181,0-0.326,0.147-0.326,0.328C7.464,11.377,7.609,11.523,7.79,11.523z M7.79,13.013h4.612c0.116-0.231,0.25-0.45,0.406-0.654
		H7.79c-0.181,0-0.326,0.146-0.326,0.327S7.609,13.013,7.79,13.013z M18.958,13.211c0.91,1.578,0.368,3.605-1.213,4.516
		c-1.577,0.91-3.604,0.37-4.515-1.21c-0.913-1.578-0.368-3.604,1.21-4.516C16.02,11.089,18.046,11.632,18.958,13.211z
		 M18.484,13.484c-0.763-1.316-2.453-1.77-3.77-1.011c-1.318,0.763-1.772,2.451-1.009,3.77c0.76,1.318,2.449,1.772,3.768,1.012
		C18.791,16.492,19.243,14.803,18.484,13.484z M18.578,17.523l-1.422,0.821l1.095,1.894l1.421-0.818L18.578,17.523z M19.82,19.678
		l-1.422,0.819c0.228,0.395,0.729,0.527,1.121,0.302C19.913,20.572,20.048,20.069,19.82,19.678z"/>
</g>
</svg>
