<?xml version="1.0" encoding="utf-8"?>
<!-- Generator: Adobe Illustrator 16.0.4, SVG Export Plug-In . SVG Version: 6.00 Build 0)  -->
<!DOCTYPE svg PUBLIC "-//W3C//DTD SVG 1.1//EN" "http://www.w3.org/Graphics/SVG/1.1/DTD/svg11.dtd">
<svg version="1.1" id="Layer_1" xmlns="http://www.w3.org/2000/svg" xmlns:xlink="http://www.w3.org/1999/xlink" x="0px" y="0px"
	 width="24px" height="24px" viewBox="0 0 24 24" enable-background="new 0 0 24 24" xml:space="preserve">
<g>
	<g>
		<path fill="#231F20" d="M18.91,8.215c-0.721-0.664-1.559-1.183-2.455-1.56c-0.117,0.176-0.252,0.342-0.402,0.494
			c-0.199,0.201-0.426,0.374-0.672,0.51c0.26,0.086,0.51,0.185,0.75,0.297c0.244,0.114,0.338,0.414,0.203,0.648l0,0
			c-0.119,0.207-0.379,0.289-0.594,0.186c-1.637-0.772-3.463-0.627-4.262-0.506c-0.236,0.034-0.463-0.115-0.518-0.347l0,0
			c-0.064-0.263,0.113-0.523,0.379-0.564c0.146-0.021,0.32-0.044,0.518-0.062c-0.059-0.052-0.115-0.104-0.172-0.16
			c-0.281-0.283-0.506-0.613-0.66-0.981c-0.018-0.039-0.033-0.08-0.047-0.119c-0.244,0.041-0.486,0.092-0.723,0.151
			c-1.373-0.799-3.02-0.801-4-0.705c-0.425,0.04-0.677,0.495-0.492,0.88l0.83,1.701c-0.922,0.803-1.619,1.787-2.01,2.883
			L3.57,10.957c-0.34-0.002-0.615,0.275-0.615,0.615v2.271c0,0.229,0.125,0.438,0.33,0.544l1.312,0.687
			c0.549,1.514,1.686,2.812,3.188,3.709v2.01c0,0.396,0.32,0.717,0.717,0.717h1.84c0.285,0,0.543-0.17,0.658-0.43l0.461-1.06
			c0.396,0.047,0.801,0.072,1.213,0.072c0.653,0,1.288-0.061,1.896-0.178v0.877c0,0.396,0.32,0.717,0.718,0.717h1.832
			c0.264,0,0.508-0.145,0.633-0.379c0.976-1.832,2.035-3.67,2.815-5.588c0.398-0.971,0.539-2.002,0.453-3.008
			C20.883,10.91,20.145,9.351,18.91,8.215z M7.9,12.029c-0.51,0-0.922-0.412-0.922-0.922c0-0.51,0.412-0.922,0.922-0.922
			c0.512,0,0.924,0.412,0.924,0.922C8.824,11.617,8.412,12.029,7.9,12.029z"/>
		<path fill="#231F20" d="M12.96,7.267c0.28,0.11,0.588,0.172,0.911,0.172c0.156,0,0.311-0.014,0.459-0.043
			c0.627-0.117,1.17-0.472,1.533-0.965c0.301-0.41,0.479-0.916,0.479-1.465c0.002-1.367-1.107-2.474-2.471-2.474
			c-1.368,0-2.475,1.106-2.475,2.474c0,0.354,0.076,0.69,0.211,0.996C11.865,6.555,12.357,7.027,12.96,7.267z"/>
	</g>
</g>
</svg>
