<?xml version="1.0" encoding="utf-8"?>
<!-- Generator: Adobe Illustrator 16.0.4, SVG Export Plug-In . SVG Version: 6.00 Build 0)  -->
<!DOCTYPE svg PUBLIC "-//W3C//DTD SVG 1.1//EN" "http://www.w3.org/Graphics/SVG/1.1/DTD/svg11.dtd">
<svg version="1.1" id="Layer_1" xmlns="http://www.w3.org/2000/svg" xmlns:xlink="http://www.w3.org/1999/xlink" x="0px" y="0px"
	 width="24px" height="24px" viewBox="0 0 24 24" enable-background="new 0 0 24 24" xml:space="preserve">
<g>
	<path d="M19.959,5.904h-3.977V5.193c0-0.839-0.683-1.521-1.522-1.521H9.54c-0.838,0-1.522,0.683-1.522,1.521v0.711H4.042
		c-0.812,0-1.473,0.661-1.473,1.473V17.73c0,0.812,0.661,1.473,1.473,1.473h15.917c0.811,0,1.472-0.66,1.472-1.473V7.377
		C21.431,6.565,20.77,5.904,19.959,5.904z M9.303,5.193c0-0.129,0.105-0.236,0.235-0.236h4.921c0.131,0,0.236,0.106,0.236,0.236
		v0.711H9.303V5.193z M4.042,7.191h15.917c0.103,0,0.188,0.084,0.188,0.187v3.375c-1.993,0.739-4.998,1.174-8.153,1.174
		c-3.145,0-6.147-0.434-8.14-1.17V7.377C3.854,7.275,3.938,7.191,4.042,7.191z M19.959,17.918H4.042
		c-0.103,0-0.187-0.082-0.187-0.186v-5.616c1.823,0.602,4.221,0.977,6.835,1.075c0,0.005-0.001,0.013-0.001,0.019v0.286
		c0,0.529,0.432,0.963,0.964,0.963h0.695c0.532,0,0.964-0.434,0.964-0.963V13.21c0-0.007-0.001-0.015-0.001-0.021
		c2.614-0.096,5.012-0.473,6.836-1.075v5.619C20.146,17.836,20.062,17.918,19.959,17.918z"/>
</g>
</svg>
