<?xml version="1.0" encoding="utf-8"?>
<!-- Generator: Adobe Illustrator 16.0.4, SVG Export Plug-In . SVG Version: 6.00 Build 0)  -->
<!DOCTYPE svg PUBLIC "-//W3C//DTD SVG 1.1//EN" "http://www.w3.org/Graphics/SVG/1.1/DTD/svg11.dtd">
<svg version="1.1" id="Layer_1" xmlns="http://www.w3.org/2000/svg" xmlns:xlink="http://www.w3.org/1999/xlink" x="0px" y="0px"
	 width="24px" height="24px" viewBox="0 0 24 24" enable-background="new 0 0 24 24" xml:space="preserve">
<path fill="#231F20" d="M19.323,9.919c-0.839-1.957-2.267-3.379-4.238-4.221c-0.983-0.42-2.021-0.635-3.098-0.635
	c-1.08,0-2.105,0.213-3.09,0.635c-1.957,0.84-3.389,2.261-4.23,4.221C4.245,10.902,4.04,11.93,4.04,13.01
	c0,1.08,0.205,2.115,0.627,3.098c0.842,1.959,2.273,3.393,4.23,4.23c0.984,0.422,2.01,0.635,3.09,0.635
	c1.078,0,2.113-0.215,3.098-0.635c1.974-0.842,3.397-2.273,4.238-4.23c0.422-0.982,0.637-2.018,0.637-3.098
	C19.96,11.93,19.747,10.905,19.323,9.919z M14.93,16.073c-0.175,0.176-0.496,0.176-0.671,0l-2.602-2.604
	c-0.106-0.104-0.149-0.235-0.131-0.392c0-0.026-0.018-0.061-0.018-0.069V8.431c0-0.269,0.225-0.487,0.479-0.487
	c0.27,0,0.504,0.217,0.504,0.487v4.508l2.438,2.455C15.117,15.583,15.128,15.874,14.93,16.073z"/>
</svg>
