<?xml version="1.0" encoding="utf-8"?>
<!-- Generator: Adobe Illustrator 16.0.4, SVG Export Plug-In . SVG Version: 6.00 Build 0)  -->
<!DOCTYPE svg PUBLIC "-//W3C//DTD SVG 1.1//EN" "http://www.w3.org/Graphics/SVG/1.1/DTD/svg11.dtd">
<svg version="1.1" id="Layer_1" xmlns="http://www.w3.org/2000/svg" xmlns:xlink="http://www.w3.org/1999/xlink" x="0px" y="0px"
	 width="24px" height="24px" viewBox="0 0 24 24" enable-background="new 0 0 24 24" xml:space="preserve">
<path fill="#231F20" d="M21.292,10.186c-0.533-1.247-1.25-2.321-2.149-3.222c-0.9-0.901-1.978-1.618-3.224-2.152
	c-1.246-0.533-2.553-0.799-3.92-0.799S9.326,4.28,8.079,4.812c-1.246,0.534-2.32,1.25-3.222,2.152
	c-0.9,0.901-1.617,1.975-2.151,3.222c-0.533,1.247-0.799,2.552-0.799,3.919c0,1.967,0.529,3.78,1.588,5.44
	c0.143,0.218,0.346,0.326,0.608,0.326h15.792c0.263,0,0.465-0.108,0.607-0.326c1.059-1.668,1.59-3.479,1.59-5.44
	C22.093,12.738,21.825,11.433,21.292,10.186z M10.979,5.877c0.282-0.282,0.621-0.422,1.02-0.422s0.737,0.141,1.021,0.422
	c0.28,0.281,0.424,0.622,0.424,1.02S13.3,7.635,13.02,7.917c-0.283,0.282-0.622,0.422-1.021,0.422s-0.737-0.14-1.02-0.422
	c-0.281-0.282-0.423-0.622-0.423-1.02S10.698,6.159,10.979,5.877z M5.81,15.125c-0.281,0.281-0.621,0.422-1.02,0.422
	c-0.397,0-0.737-0.141-1.02-0.422c-0.281-0.281-0.422-0.621-0.422-1.02c0-0.399,0.141-0.738,0.422-1.021
	c0.282-0.28,0.622-0.422,1.02-0.422s0.738,0.142,1.02,0.422c0.282,0.281,0.423,0.621,0.423,1.021
	C6.233,14.504,6.092,14.844,5.81,15.125z M7.973,10.079c-0.282,0.282-0.622,0.423-1.02,0.423s-0.737-0.142-1.02-0.423
	C5.652,9.797,5.512,9.458,5.512,9.06c0-0.397,0.141-0.738,0.422-1.019c0.282-0.282,0.622-0.422,1.02-0.422s0.737,0.141,1.02,0.422
	c0.28,0.281,0.421,0.621,0.421,1.019S8.254,9.797,7.973,10.079z M14.354,10.174l-1.138,4.303c0.375,0.256,0.646,0.598,0.812,1.024
	c0.166,0.429,0.188,0.867,0.068,1.317c-0.15,0.578-0.484,1.019-1.003,1.318c-0.52,0.301-1.067,0.375-1.646,0.225
	c-0.579-0.149-1.018-0.483-1.318-1.002c-0.3-0.518-0.375-1.065-0.225-1.645c0.119-0.451,0.356-0.82,0.709-1.109
	c0.354-0.289,0.755-0.453,1.205-0.489l1.138-4.303c0.053-0.195,0.166-0.344,0.34-0.445c0.172-0.102,0.353-0.126,0.539-0.073
	c0.188,0.052,0.332,0.163,0.435,0.332C14.371,9.796,14.398,9.979,14.354,10.174z M16.025,10.079
	c-0.282-0.281-0.422-0.621-0.422-1.019c0-0.397,0.14-0.738,0.422-1.019c0.281-0.282,0.621-0.422,1.021-0.422
	s0.738,0.141,1.021,0.422c0.281,0.281,0.422,0.622,0.422,1.019c0,0.398-0.141,0.738-0.422,1.019
	c-0.281,0.282-0.621,0.423-1.021,0.423S16.309,10.361,16.025,10.079z M20.229,15.125c-0.281,0.281-0.621,0.422-1.021,0.422
	s-0.737-0.141-1.021-0.422c-0.281-0.281-0.422-0.621-0.422-1.02c0-0.399,0.142-0.738,0.422-1.021
	c0.281-0.282,0.621-0.422,1.021-0.422s0.737,0.142,1.021,0.422c0.283,0.281,0.422,0.621,0.422,1.021
	C20.65,14.504,20.512,14.844,20.229,15.125z"/>
</svg>
