<?xml version="1.0" encoding="utf-8"?>
<!-- Generator: Adobe Illustrator 16.0.4, SVG Export Plug-In . SVG Version: 6.00 Build 0)  -->
<!DOCTYPE svg PUBLIC "-//W3C//DTD SVG 1.1//EN" "http://www.w3.org/Graphics/SVG/1.1/DTD/svg11.dtd">
<svg version="1.1" id="Layer_1" xmlns="http://www.w3.org/2000/svg" xmlns:xlink="http://www.w3.org/1999/xlink" x="0px" y="0px"
	 width="24px" height="24px" viewBox="0 0 24 24" enable-background="new 0 0 24 24" xml:space="preserve">
<g>
	<g>
		<path d="M21.414,8.733c-0.088-0.668-0.102-1.818,0.518-2.204c0.012-0.007,0.021-0.017,0.031-0.026
			c0.506-0.162,0.856-0.39,0.581-0.696l-7.478-2.253L2.956,5.237c0,0-1.386,0.198-1.262,2.353C1.761,8.762,2.128,9.338,2.45,9.621
			l-0.993,0.3c-0.276,0.305,0.074,0.534,0.581,0.696c0.01,0.008,0.019,0.019,0.029,0.026c0.62,0.386,0.608,1.537,0.519,2.204
			c-2.226,0.632-1.427,0.838-1.427,0.838l0.489,0.118c-0.343,0.312-0.686,0.899-0.621,2.016c0.124,2.153,1.263,2.303,1.263,2.303
			l7.924,2.576l11.962-2.896c0,0,0.799-0.207-1.428-0.84c-0.09-0.667-0.103-1.816,0.519-2.204c0.013-0.007,0.021-0.018,0.029-0.025
			c0.506-0.163,0.858-0.39,0.581-0.695l-0.519-0.157c0.346-0.209,0.868-0.756,0.948-2.175c0.057-0.976-0.198-1.548-0.492-1.885
			l1.027-0.248C22.842,9.571,23.641,9.365,21.414,8.733z M11.409,8.706l2.012-0.415l6.798-1.396l1.012-0.208
			c-0.323,0.591-0.31,1.401-0.256,1.923C20.987,8.729,21,8.835,21.014,8.917l-1.108,0.276l-8.581,2.134L11.409,8.706z M2.77,10.8
			l1.013,0.209l6.527,1.341l0.57,0.117l0,0l0,0l1.711,0.35l0.084,2.624l-8.818-2.194l-0.869-0.216
			C3,12.949,3.014,12.844,3.026,12.724C3.08,12.204,3.093,11.393,2.77,10.8z M2.376,7.486c-0.012-0.573,0.09-0.987,0.296-1.198
			c0.131-0.134,0.286-0.162,0.393-0.162c0.057,0,0.097,0.007,0.1,0.007l5.218,1.701l2.603,0.849L10.9,11.324L3.597,9.276
			L3.211,9.168C3.197,9.164,3.178,9.161,3.163,9.161C3.133,9.159,2.411,9.092,2.376,7.486z M10.233,19.553l-7.688-2.155
			c-0.015-0.004-0.033-0.007-0.049-0.008c-0.03-0.002-0.752-0.068-0.787-1.674c-0.013-0.574,0.089-0.987,0.296-1.199
			c0.131-0.134,0.286-0.162,0.392-0.162c0.057,0,0.097,0.007,0.1,0.007l0,0l7.82,2.551L10.233,19.553z M20.308,16.838
			c0.012,0.118,0.025,0.227,0.039,0.309l-9.689,2.41l0.084-2.622l2.072-0.427l0.306,0.075l1.147-0.374l5.283-1.085l1.013-0.209
			C20.239,15.507,20.253,16.318,20.308,16.838z M20.841,13.274c-0.018,0.002-0.035,0.003-0.053,0.009l-0.73,0.204l-6.956,1.95
			l-0.085-2.64l2.282-0.744l5.527-1.803c0.001,0,0.289-0.065,0.502,0.151c0.207,0.211,0.31,0.625,0.298,1.198
			C21.59,13.206,20.867,13.272,20.841,13.274z"/>
	</g>
</g>
</svg>
