<?xml version="1.0" encoding="utf-8"?>
<!-- Generator: Adobe Illustrator 16.0.4, SVG Export Plug-In . SVG Version: 6.00 Build 0)  -->
<!DOCTYPE svg PUBLIC "-//W3C//DTD SVG 1.1//EN" "http://www.w3.org/Graphics/SVG/1.1/DTD/svg11.dtd">
<svg version="1.1" id="Layer_1" xmlns="http://www.w3.org/2000/svg" xmlns:xlink="http://www.w3.org/1999/xlink" x="0px" y="0px"
	 width="24px" height="24px" viewBox="0 0 24 24" enable-background="new 0 0 24 24" xml:space="preserve">
<g>
	<g>
		<path d="M15.971,10.27c0.519-0.111,0.999-0.541,1.076-1.492c0.065-0.779-0.135-1.181-0.43-1.386
			C17.436,4.054,15.178,3.4,15.178,3.4s-1.688-2.864-4.982-0.854c-0.419,0.255-1.07,0.745-1.458,1.25
			C8.114,4.46,7.69,5.538,7.624,7.283c-0.402,0.154-0.718,0.542-0.64,1.494c0.083,0.995,0.602,1.419,1.147,1.506
			c0.738,1.795,2.194,3.276,3.917,3.276C13.776,13.559,15.235,12.071,15.971,10.27z M12.049,12.721
			c-1.993,0-3.597-2.706-3.597-4.946c0-0.307,0.01-0.592,0.029-0.856c2.914,0.128,4.638-1.042,5.575-2.054
			c0.892,0.886,1.354,2.006,1.589,2.837c0,0.024,0,0.048,0,0.072C15.646,10.015,14.042,12.721,12.049,12.721z"/>
		<path d="M10.907,16.108l0.23-0.955c0.026-0.11,0.084-0.205,0.161-0.276c-0.024-0.018-0.046-0.035-0.07-0.053l-2.061-1.707
			l-1.254,0.294c-2.124,0.499-3.62,2.293-3.62,4.35v2.701c0,0.532,0.473,0.956,1.039,0.956h5.309l0.81-4.614
			C11.088,16.799,10.821,16.464,10.907,16.108z"/>
		<path d="M16.106,13.411l-1.236-0.294l-2.058,1.707c-0.023,0.018-0.046,0.035-0.068,0.053c0.077,0.071,0.134,0.166,0.16,0.276
			l0.231,0.955c0.086,0.354-0.181,0.69-0.545,0.696l0.809,4.614h5.309c0.568,0,0.997-0.424,0.997-0.957v-2.701
			C19.707,15.704,18.23,13.91,16.106,13.411z"/>
	</g>
</g>
</svg>
