<?xml version="1.0" encoding="utf-8"?>
<!-- Generator: Adobe Illustrator 16.0.4, SVG Export Plug-In . SVG Version: 6.00 Build 0)  -->
<!DOCTYPE svg PUBLIC "-//W3C//DTD SVG 1.1//EN" "http://www.w3.org/Graphics/SVG/1.1/DTD/svg11.dtd">
<svg version="1.1" id="Layer_1" xmlns="http://www.w3.org/2000/svg" xmlns:xlink="http://www.w3.org/1999/xlink" x="0px" y="0px"
	 width="24px" height="24px" viewBox="0 0 24 24" enable-background="new 0 0 24 24" xml:space="preserve">
<g>
	<g id="Layer_5_1_">
		<g>
			<path fill="#231F20" d="M21.562,8.579c0,0-0.842,0-1.123,0c-0.127,0-0.107-0.188-0.107-0.188V7.827
				c0-0.74-0.602-1.341-1.342-1.341H9.81c-0.061,0-0.135-0.124-0.27-0.384C9.52,6.063,9.501,6.024,9.481,5.986
				C9.013,5.099,8.406,4.913,7.978,4.913H5.591c-0.604,0-0.965,0.351-1.389,1.042C4.175,6,4.148,6.046,4.121,6.092
				c-0.137,0.23-0.24,0.395-0.318,0.395h-0.7c-0.74,0-1.342,0.602-1.342,1.341V18.98c0,0.655,0.473,1.203,1.096,1.317
				c0.074,0.027,0.158,0.041,0.246,0.041h16.368c0.441,0,0.867-0.354,0.945-0.791L22.227,9.37
				C22.305,8.935,22.006,8.579,21.562,8.579z M3.103,7.559h0.699c0.695,0,1.023-0.554,1.24-0.92
				c0.025-0.041,0.051-0.082,0.074-0.122c0.217-0.353,0.387-0.531,0.592-0.531H7.98c0.07,0,0.289,0,0.551,0.5
				c0.02,0.035,0.037,0.071,0.055,0.106C8.785,6.978,9.083,7.559,9.81,7.559h9.18c0.146,0,0.268,0.123,0.268,0.268v0.537
				c0,0,0.018,0.215-0.105,0.215c-3.489,0-13.956,0-13.956,0c-0.443,0-0.869,0.356-0.947,0.792l-1.346,7.566
				c0,0-0.068,0.254-0.068-0.215c0-2.226,0-8.896,0-8.896C2.835,7.682,2.958,7.559,3.103,7.559z"/>
		</g>
	</g>
</g>
</svg>
