<?xml version="1.0" encoding="utf-8"?>
<!-- Generator: Adobe Illustrator 16.0.4, SVG Export Plug-In . SVG Version: 6.00 Build 0)  -->
<!DOCTYPE svg PUBLIC "-//W3C//DTD SVG 1.1//EN" "http://www.w3.org/Graphics/SVG/1.1/DTD/svg11.dtd">
<svg version="1.1" id="Layer_1" xmlns="http://www.w3.org/2000/svg" xmlns:xlink="http://www.w3.org/1999/xlink" x="0px" y="0px"
	 width="24px" height="24px" viewBox="0 0 24 24" enable-background="new 0 0 24 24" xml:space="preserve">
<g>
	<path fill="#231F20" d="M4.214,20.34c0,0.596,0.482,1.077,1.076,1.077h5.769h5.769c0.595,0,1.076-0.481,1.076-1.077v-6.084
		l-0.778,1.693c-0.121,0.263-0.317,0.475-0.567,0.615l-0.004,0.004L16.55,16.57L14.298,17.8c-0.137,0.074-0.291,0.114-0.446,0.114
		c-0.211,0-0.416-0.071-0.578-0.202c-0.172-0.136-0.291-0.328-0.336-0.544l-0.418-2.002H7.514c-0.281,0-0.509-0.229-0.509-0.509
		c0-0.281,0.228-0.509,0.509-0.509h4.897c0.021-0.109,0.055-0.217,0.103-0.319l0.652-1.419H7.514c-0.281,0-0.509-0.228-0.509-0.509
		c0-0.281,0.228-0.508,0.509-0.508h6.12l2.472-5.368l0.254-0.553l0.004,0.002l0.019-0.036l0.589-1.279
		c-0.046-0.007-0.096-0.011-0.145-0.011h-5.767H9.141v0.355C9.145,4.541,9.146,4.58,9.146,4.619v2.947
		c0,0.836-0.68,1.515-1.515,1.515h-2.95c-0.03,0-0.062-0.002-0.093-0.004H4.214V20.34L4.214,20.34z M7.514,16.743h3.763
		c0.28,0,0.509,0.228,0.509,0.509c0,0.28-0.229,0.508-0.509,0.508H7.514c-0.281,0-0.509-0.228-0.509-0.508
		C7.005,16.971,7.232,16.743,7.514,16.743z"/>
	<path fill="#231F20" d="M7.632,8.469c0.5,0,0.905-0.405,0.905-0.905v-2.95c0-0.272-0.225-0.454-0.456-0.454
		c-0.111,0-0.224,0.041-0.317,0.135l-3.401,3.4C4.078,7.981,4.279,8.469,4.682,8.469H7.632z"/>
	<path fill="#231F20" d="M21.193,3.237l-1.652-0.761c-0.141-0.063-0.284-0.093-0.426-0.093c-0.385,0-0.752,0.22-0.926,0.592
		l-0.347,0.75l3.497,1.607l0.004,0.002l0.346-0.751C21.93,4.075,21.705,3.471,21.193,3.237z"/>
	<polygon fill="#231F20" points="21.07,5.92 21.088,5.89 17.586,4.281 17.57,4.312 17.527,4.405 16.938,5.69 17.902,6.136 
		20.438,7.299 	"/>
	<polygon fill="#231F20" points="17.902,12.795 20.16,7.889 17.902,6.852 16.66,6.28 14.307,11.391 13.839,12.409 13.162,13.879 
		13.729,14.148 15.443,14.963 16.645,15.532 	"/>
	<path fill="#231F20" d="M13.003,14.48c0.003,0.021,0.007,0.045,0.011,0.065l0.129,0.62l0.391,1.881
		c0.031,0.156,0.171,0.258,0.316,0.258c0.051,0,0.104-0.013,0.154-0.041l2.252-1.23c0.004-0.002,0.006-0.004,0.01-0.008
		l-1.815-0.861L13.003,14.48z"/>
</g>
</svg>
