<?xml version="1.0" encoding="utf-8"?>
<!-- Generator: Adobe Illustrator 16.0.4, SVG Export Plug-In . SVG Version: 6.00 Build 0)  -->
<!DOCTYPE svg PUBLIC "-//W3C//DTD SVG 1.1//EN" "http://www.w3.org/Graphics/SVG/1.1/DTD/svg11.dtd">
<svg version="1.1" id="Layer_1" xmlns="http://www.w3.org/2000/svg" xmlns:xlink="http://www.w3.org/1999/xlink" x="0px" y="0px"
	 width="24px" height="24px" viewBox="0 0 24 24" enable-background="new 0 0 24 24" xml:space="preserve">
<g>
	<path d="M4.815,9.731c0.099,0.339,0.236,0.667,0.41,0.974L4.73,11.331c-0.162,0.204-0.144,0.495,0.038,0.679l0.854,0.854
		c0.184,0.184,0.475,0.199,0.679,0.037l0.621-0.49c0.319,0.184,0.659,0.328,1.013,0.428l0.093,0.799
		c0.03,0.26,0.249,0.453,0.507,0.453h1.207c0.259,0,0.477-0.193,0.507-0.453l0.089-0.77c0.38-0.1,0.744-0.247,1.085-0.439l0.6,0.474
		c0.204,0.162,0.496,0.145,0.679-0.037l0.853-0.854c0.185-0.184,0.2-0.475,0.039-0.679l-0.467-0.592
		c0.194-0.335,0.346-0.693,0.446-1.067l0.72-0.083c0.259-0.03,0.452-0.249,0.452-0.507V7.875c0-0.259-0.193-0.477-0.452-0.507
		l-0.71-0.083c-0.096-0.37-0.242-0.724-0.428-1.055l0.437-0.552c0.161-0.204,0.144-0.495-0.039-0.679l-0.851-0.851
		c-0.184-0.184-0.475-0.2-0.679-0.039l-0.536,0.425c-0.348-0.204-0.72-0.36-1.11-0.465l-0.081-0.693
		c-0.03-0.259-0.249-0.453-0.507-0.453H8.583c-0.259,0-0.477,0.194-0.507,0.453L7.995,4.069c-0.4,0.107-0.782,0.269-1.138,0.481
		L6.301,4.109C6.097,3.948,5.806,3.966,5.622,4.148L4.769,5.001C4.585,5.185,4.569,5.476,4.73,5.68l0.465,0.588
		c-0.186,0.335-0.328,0.693-0.42,1.065L4.031,7.419c-0.259,0.03-0.453,0.249-0.453,0.507v1.207c0,0.258,0.194,0.477,0.453,0.507
		L4.815,9.731z M9.188,6.467c1.1,0,1.995,0.896,1.995,1.995s-0.896,1.995-1.995,1.995S7.193,9.562,7.193,8.462
		S8.088,6.467,9.188,6.467z"/>
	<path d="M21.118,10.029l-0.637-0.538c-0.196-0.166-0.485-0.158-0.671,0.019l-0.352,0.329c-0.297-0.144-0.612-0.244-0.938-0.303
		L18.422,9.05c-0.051-0.251-0.283-0.425-0.538-0.404l-0.831,0.071c-0.254,0.022-0.454,0.23-0.463,0.487l-0.016,0.494
		c-0.319,0.115-0.621,0.273-0.896,0.471l-0.421-0.279c-0.214-0.142-0.499-0.101-0.665,0.095l-0.537,0.641
		c-0.166,0.196-0.158,0.485,0.018,0.671l0.368,0.392c-0.127,0.287-0.218,0.588-0.271,0.897l-0.525,0.107
		c-0.251,0.051-0.425,0.283-0.404,0.537l0.071,0.832c0.021,0.254,0.229,0.453,0.486,0.463l0.568,0.018
		c0.103,0.271,0.238,0.527,0.401,0.768l-0.317,0.479c-0.141,0.215-0.101,0.5,0.096,0.666l0.637,0.537
		c0.195,0.166,0.484,0.158,0.671-0.018l0.416-0.391c0.273,0.127,0.561,0.223,0.855,0.279l0.115,0.57
		c0.051,0.25,0.283,0.424,0.538,0.404l0.83-0.07c0.255-0.023,0.455-0.23,0.463-0.488l0.019-0.557
		c0.304-0.107,0.59-0.254,0.855-0.434l0.459,0.303c0.214,0.143,0.499,0.102,0.665-0.094l0.537-0.637
		c0.166-0.197,0.158-0.486-0.018-0.672l-0.37-0.393c0.136-0.287,0.234-0.59,0.291-0.9l0.505-0.104
		c0.251-0.051,0.425-0.283,0.404-0.537l-0.07-0.832c-0.022-0.255-0.23-0.455-0.487-0.463l-0.507-0.016
		c-0.105-0.295-0.247-0.574-0.423-0.833l0.276-0.417C21.355,10.481,21.314,10.194,21.118,10.029z M17.987,14.832
		c-0.897,0.076-1.69-0.592-1.765-1.49c-0.077-0.897,0.592-1.69,1.489-1.765c0.897-0.077,1.69,0.592,1.765,1.489
		C19.554,13.965,18.885,14.758,17.987,14.832z"/>
	<path d="M7.722,17.068c-0.255,0.025-0.451,0.24-0.453,0.496l-0.006,0.512c-0.004,0.258,0.186,0.475,0.441,0.508l0.376,0.049
		c0.062,0.229,0.152,0.445,0.267,0.652l-0.243,0.299c-0.162,0.201-0.149,0.488,0.031,0.672l0.358,0.365
		c0.18,0.184,0.467,0.205,0.671,0.047l0.301-0.232c0.212,0.125,0.437,0.225,0.671,0.293l0.04,0.389
		c0.026,0.254,0.241,0.451,0.498,0.453l0.511,0.006c0.257,0.004,0.475-0.186,0.507-0.441l0.046-0.367
		c0.255-0.062,0.498-0.158,0.728-0.283l0.283,0.229c0.199,0.162,0.486,0.148,0.671-0.031l0.365-0.357
		c0.185-0.18,0.205-0.467,0.047-0.672l-0.216-0.279c0.133-0.223,0.236-0.459,0.307-0.709l0.336-0.033
		c0.254-0.027,0.45-0.24,0.452-0.498l0.007-0.512c0.004-0.256-0.187-0.475-0.441-0.508l-0.327-0.041
		c-0.062-0.248-0.155-0.486-0.276-0.709l0.204-0.25c0.161-0.199,0.149-0.486-0.03-0.672l-0.357-0.365
		c-0.181-0.184-0.467-0.203-0.672-0.047l-0.244,0.189c-0.231-0.141-0.478-0.248-0.736-0.32l-0.033-0.316
		c-0.026-0.256-0.24-0.451-0.497-0.453l-0.512-0.006c-0.256-0.006-0.475,0.186-0.507,0.439l-0.041,0.316
		c-0.267,0.068-0.523,0.174-0.762,0.311l-0.252-0.207c-0.2-0.16-0.487-0.148-0.671,0.031l-0.368,0.359
		c-0.184,0.18-0.204,0.467-0.046,0.672l0.216,0.279c-0.125,0.223-0.225,0.459-0.289,0.707L7.722,17.068z M11.023,16.49
		c0.734,0.008,1.322,0.611,1.314,1.346s-0.612,1.322-1.346,1.314s-1.322-0.613-1.314-1.348C9.685,17.07,10.29,16.48,11.023,16.49z"
		/>
</g>
</svg>
