<?xml version="1.0" encoding="utf-8"?>
<!-- Generator: Adobe Illustrator 16.0.4, SVG Export Plug-In . SVG Version: 6.00 Build 0)  -->
<!DOCTYPE svg PUBLIC "-//W3C//DTD SVG 1.1//EN" "http://www.w3.org/Graphics/SVG/1.1/DTD/svg11.dtd">
<svg version="1.1" id="Layer_1" xmlns="http://www.w3.org/2000/svg" xmlns:xlink="http://www.w3.org/1999/xlink" x="0px" y="0px"
	 width="24px" height="24px" viewBox="0 0 24 24" enable-background="new 0 0 24 24" xml:space="preserve">
<g>
	<g>
		<path d="M12,12.62c2.812,0,3.823-2.814,4.088-5.127C16.414,4.644,15.066,2.5,12,2.5c-3.067,0-4.415,2.144-4.088,4.993
			C8.177,9.805,9.188,12.621,12,12.62z"/>
		<path d="M19.605,19.324c-0.031-0.897-0.136-1.799-0.293-2.683c-0.189-1.07-0.431-2.639-1.365-3.336
			c-0.54-0.403-1.24-0.536-1.858-0.779c-0.301-0.118-0.571-0.235-0.824-0.369c-0.854,0.937-1.968,1.427-3.266,1.427
			c-1.297,0-2.41-0.49-3.265-1.427c-0.253,0.134-0.522,0.251-0.824,0.369c-0.618,0.243-1.317,0.376-1.858,0.779
			c-0.934,0.697-1.176,2.266-1.365,3.336c-0.156,0.884-0.262,1.785-0.292,2.683c-0.024,0.694,0.319,0.792,0.9,1.002
			c0.729,0.263,1.479,0.458,2.236,0.617C8.993,21.252,10.5,21.489,12,21.5c1.5-0.011,3.006-0.248,4.468-0.557
			c0.757-0.159,1.508-0.354,2.236-0.617C19.286,20.116,19.629,20.02,19.605,19.324z"/>
	</g>
</g>
</svg>
